<?xml version="1.0" standalone="no"?>
<!DOCTYPE svg PUBLIC "-//W3C//DTD SVG 20010904//EN"
 "http://www.w3.org/TR/2001/REC-SVG-20010904/DTD/svg10.dtd">
<svg version="1.0" xmlns="http://www.w3.org/2000/svg"
 width="4961.000000pt" height="3508.000000pt" viewBox="0 0 4961.000000 3508.000000"
 preserveAspectRatio="xMidYMid meet">
<metadata>
Created by potrace 1.15, written by Peter Selinger 2001-2017
</metadata>
<g transform="translate(0.000000,3508.000000) scale(0.100000,-0.100000)"
fill="#000000" stroke="none">
<path d="M0 17540 l0 -17540 24805 0 24805 0 0 17540 0 17540 -24805 0 -24805
0 0 -17540z m25278 15073 c259 -522 769 -1546 1133 -2278 364 -731 771 -1550
904 -1820 133 -269 529 -1066 880 -1770 351 -704 751 -1509 890 -1790 139
-280 535 -1077 880 -1770 345 -693 748 -1503 895 -1800 147 -297 543 -1093
880 -1770 337 -676 735 -1477 885 -1780 150 -302 557 -1121 905 -1820 348
-698 737 -1481 865 -1740 128 -258 531 -1068 895 -1800 364 -731 756 -1519
870 -1750 114 -231 524 -1054 910 -1830 386 -775 782 -1572 880 -1770 98 -198
512 -1030 920 -1850 408 -819 791 -1589 850 -1710 59 -121 313 -632 564 -1135
l456 -915 -7963 -3 c-4380 -1 -11554 -1 -15941 0 l-7978 3 412 825 c227 454
456 915 510 1025 54 110 425 857 825 1660 400 803 832 1672 960 1930 128 259
508 1024 845 1700 337 677 749 1505 915 1840 166 336 553 1114 860 1730 307
616 712 1431 900 1810 188 380 571 1149 850 1710 279 561 700 1407 935 1880
235 473 621 1249 858 1725 236 476 656 1320 932 1875 276 556 657 1321 845
1700 188 380 598 1203 910 1830 312 627 695 1397 850 1710 155 314 574 1155
930 1870 356 715 739 1485 850 1710 175 355 1649 3318 1723 3463 14 28 29 52
32 52 4 0 219 -426 478 -947z"/>
<path d="M24920 26947 l0 -5813 683 -394 c889 -513 1540 -889 2017 -1165 376
-217 3881 -2241 4898 -2829 283 -163 515 -296 517 -296 2 0 -318 647 -712
1438 -393 790 -822 1653 -953 1917 -131 264 -502 1011 -825 1660 -323 649
-755 1518 -960 1930 -205 413 -580 1166 -833 1675 -253 509 -668 1344 -922
1855 -254 512 -644 1295 -865 1740 -221 446 -649 1305 -950 1910 -301 605
-668 1344 -816 1643 -147 298 -271 542 -274 542 -3 0 -5 -2616 -5 -5813z"/>
<path d="M23770 20324 c-757 -438 -1202 -695 -2785 -1609 -588 -340 -1441
-833 -1895 -1095 -454 -262 -1136 -656 -1517 -876 l-692 -399 2522 -3 c2009
-2 2524 1 2533 10 7 7 248 423 536 923 289 501 686 1189 883 1530 197 341 517
897 713 1235 195 338 363 630 374 648 11 17 18 32 16 32 -2 0 -311 -179 -688
-396z"/>
<path d="M24920 18472 c0 -1689 3 -2124 13 -2127 6 -3 560 -4 1229 -3 l1217 3
-358 620 c-196 341 -604 1048 -906 1570 -301 523 -690 1195 -862 1495 -173
300 -319 549 -324 555 -5 5 -9 -832 -9 -2113z"/>
<path d="M22066 16078 c-7 -13 -191 -331 -409 -708 -217 -377 -646 -1121 -954
-1655 -308 -533 -736 -1275 -952 -1648 -215 -373 -391 -683 -391 -688 0 -10
1275 -2226 1290 -2242 4 -4 912 515 2019 1154 l2011 1161 -2 2322 -3 2321
-1297 3 -1297 2 -15 -22z"/>
<path d="M27810 16097 c0 -2 173 -303 383 -668 968 -1677 1647 -2852 1830
-3169 109 -190 236 -409 281 -487 61 -106 84 -139 92 -130 6 7 157 266 336
577 179 311 579 1004 888 1540 310 536 731 1268 938 1625 206 358 383 665 394
683 l20 32 -2581 0 c-1420 0 -2581 -2 -2581 -3z"/>
<path d="M33311 11248 l-1 -4648 3452 -2299 c1899 -1265 3454 -2299 3455
-2297 2 1 -538 1089 -1198 2417 -661 1328 -1322 2657 -1469 2954 -147 297
-497 1001 -778 1565 -520 1046 -1185 2383 -2147 4320 -297 597 -714 1434 -927
1860 l-387 775 0 -4647z"/>
<path d="M16540 11380 c0 -2428 4 -4370 9 -4364 4 5 331 569 726 1254 395 685
960 1664 1256 2177 l538 932 -386 668 c-212 367 -689 1195 -1061 1838 -371
644 -761 1319 -865 1500 -104 182 -196 339 -203 350 -12 16 -14 -677 -14
-4355z"/>
<path d="M24920 8910 l0 -2250 1303 2 1302 3 647 1120 c356 616 647 1122 647
1125 1 3 -32 24 -72 47 -39 22 -286 165 -547 316 -261 150 -794 458 -1185 684
-390 225 -1019 588 -1397 806 -377 219 -689 397 -692 397 -3 0 -6 -1013 -6
-2250z"/>
<path d="M29800 10113 c-322 -558 -597 -1036 -612 -1062 l-28 -48 388 -223
c463 -268 3188 -1841 3252 -1879 l45 -26 -26 45 c-15 25 -331 574 -704 1220
-373 646 -912 1580 -1197 2075 -286 495 -523 903 -526 906 -4 4 -270 -450
-592 -1008z"/>
<path d="M19420 8129 c-630 -364 -1453 -839 -1830 -1056 -377 -218 -689 -399
-695 -404 -5 -5 1032 -9 2443 -9 l2453 0 -12 23 c-7 12 -279 483 -604 1047
-325 564 -596 1033 -601 1042 -8 16 -152 -64 -1154 -643z"/>
<path d="M22234 6395 c3 -8 367 -641 809 -1407 442 -766 990 -1715 1217 -2108
227 -393 414 -717 416 -719 2 -2 4 953 4 2122 l0 2127 -1226 0 c-1075 0 -1225
-2 -1220 -15z"/>
<path d="M27416 5983 c-135 -236 -702 -1218 -1260 -2183 -557 -965 -1012
-1756 -1011 -1758 1 -1 402 229 891 511 728 421 3428 1980 4609 2662 457 264
2028 1171 2050 1183 15 9 -621 11 -2506 12 l-2526 0 -247 -427z"/>
<path d="M12947 4078 c-1907 -1271 -3465 -2313 -3462 -2316 2 -3 3368 -5 7479
-6 5543 -1 7472 2 7463 10 -7 6 -203 122 -437 256 -353 203 -5374 3103 -6690
3863 -798 462 -874 505 -880 504 -3 0 -1565 -1041 -3473 -2311z"/>
</g>
</svg>
